<mxfile host="app.diagrams.net" modified="2023-12-31T05:13:32.804Z" agent="Mozilla/5.0 (Windows NT 10.0; Win64; x64) AppleWebKit/537.36 (KHTML, like Gecko) Chrome/120.0.0.0 Safari/537.36" etag="EzcH3-4KSXLYL0j-Un3t" version="22.1.16" type="device">
  <diagram name="第 1 页" id="OoXCDoEK0OlQDwkKFW3d">
    <mxGraphModel dx="1050" dy="565" grid="1" gridSize="10" guides="1" tooltips="1" connect="1" arrows="1" fold="1" page="1" pageScale="1" pageWidth="827" pageHeight="1169" math="0" shadow="0">
      <root>
        <mxCell id="0" />
        <mxCell id="1" parent="0" />
        <mxCell id="fiL-rvAsWxO82VO47s_y-2" value="&lt;font style=&quot;font-size: 20px;&quot;&gt;開始&lt;/font&gt;" style="rounded=1;whiteSpace=wrap;html=1;" vertex="1" parent="1">
          <mxGeometry x="330" y="40" width="120" height="30" as="geometry" />
        </mxCell>
        <mxCell id="fiL-rvAsWxO82VO47s_y-3" value="&lt;font style=&quot;font-size: 20px;&quot;&gt;用戶登錄&lt;/font&gt;" style="rounded=0;whiteSpace=wrap;html=1;" vertex="1" parent="1">
          <mxGeometry x="330" y="120" width="120" height="60" as="geometry" />
        </mxCell>
        <mxCell id="fiL-rvAsWxO82VO47s_y-4" value="&lt;font style=&quot;font-size: 18px;&quot;&gt;選擇火車車次&lt;/font&gt;" style="rounded=0;whiteSpace=wrap;html=1;" vertex="1" parent="1">
          <mxGeometry x="330" y="210" width="120" height="60" as="geometry" />
        </mxCell>
        <mxCell id="fiL-rvAsWxO82VO47s_y-5" value="&lt;font style=&quot;font-size: 20px;&quot;&gt;填寫訂票訊息&lt;/font&gt;" style="rounded=0;whiteSpace=wrap;html=1;" vertex="1" parent="1">
          <mxGeometry x="255" y="300" width="270" height="60" as="geometry" />
        </mxCell>
        <mxCell id="fiL-rvAsWxO82VO47s_y-6" value="&lt;font style=&quot;font-size: 17px;&quot;&gt;內容完整&lt;/font&gt;" style="rhombus;whiteSpace=wrap;html=1;" vertex="1" parent="1">
          <mxGeometry x="330" y="380" width="120" height="80" as="geometry" />
        </mxCell>
        <mxCell id="fiL-rvAsWxO82VO47s_y-7" value="&lt;font style=&quot;font-size: 20px;&quot;&gt;訊息較少&lt;/font&gt;" style="rounded=0;whiteSpace=wrap;html=1;" vertex="1" parent="1">
          <mxGeometry x="580" y="390" width="120" height="60" as="geometry" />
        </mxCell>
        <mxCell id="fiL-rvAsWxO82VO47s_y-8" value="&lt;font style=&quot;font-size: 17px;&quot;&gt;格式是否正確?&lt;/font&gt;" style="rhombus;whiteSpace=wrap;html=1;" vertex="1" parent="1">
          <mxGeometry x="315" y="535" width="150" height="80" as="geometry" />
        </mxCell>
        <mxCell id="fiL-rvAsWxO82VO47s_y-9" value="&lt;font style=&quot;font-size: 20px;&quot;&gt;格式錯誤&lt;/font&gt;" style="rounded=0;whiteSpace=wrap;html=1;" vertex="1" parent="1">
          <mxGeometry x="580" y="545" width="120" height="60" as="geometry" />
        </mxCell>
        <mxCell id="fiL-rvAsWxO82VO47s_y-10" value="&lt;font style=&quot;font-size: 20px;&quot;&gt;提交成功&lt;/font&gt;" style="rounded=0;whiteSpace=wrap;html=1;" vertex="1" parent="1">
          <mxGeometry x="330" y="680" width="120" height="60" as="geometry" />
        </mxCell>
        <mxCell id="fiL-rvAsWxO82VO47s_y-11" value="&lt;font style=&quot;font-size: 20px;&quot;&gt;開始&lt;/font&gt;" style="rounded=1;whiteSpace=wrap;html=1;" vertex="1" parent="1">
          <mxGeometry x="330" y="780" width="120" height="30" as="geometry" />
        </mxCell>
        <mxCell id="fiL-rvAsWxO82VO47s_y-12" value="" style="endArrow=classic;html=1;rounded=0;exitX=0.5;exitY=1;exitDx=0;exitDy=0;entryX=0.5;entryY=0;entryDx=0;entryDy=0;" edge="1" parent="1" source="fiL-rvAsWxO82VO47s_y-2" target="fiL-rvAsWxO82VO47s_y-3">
          <mxGeometry width="50" height="50" relative="1" as="geometry">
            <mxPoint x="390" y="290" as="sourcePoint" />
            <mxPoint x="440" y="240" as="targetPoint" />
          </mxGeometry>
        </mxCell>
        <mxCell id="fiL-rvAsWxO82VO47s_y-13" value="" style="endArrow=classic;html=1;rounded=0;exitX=0.5;exitY=1;exitDx=0;exitDy=0;entryX=0.5;entryY=0;entryDx=0;entryDy=0;" edge="1" parent="1" source="fiL-rvAsWxO82VO47s_y-3" target="fiL-rvAsWxO82VO47s_y-4">
          <mxGeometry width="50" height="50" relative="1" as="geometry">
            <mxPoint x="390" y="290" as="sourcePoint" />
            <mxPoint x="440" y="240" as="targetPoint" />
          </mxGeometry>
        </mxCell>
        <mxCell id="fiL-rvAsWxO82VO47s_y-14" value="" style="endArrow=classic;html=1;rounded=0;exitX=0.5;exitY=1;exitDx=0;exitDy=0;entryX=0.5;entryY=0;entryDx=0;entryDy=0;" edge="1" parent="1" source="fiL-rvAsWxO82VO47s_y-4" target="fiL-rvAsWxO82VO47s_y-5">
          <mxGeometry width="50" height="50" relative="1" as="geometry">
            <mxPoint x="390" y="290" as="sourcePoint" />
            <mxPoint x="440" y="240" as="targetPoint" />
          </mxGeometry>
        </mxCell>
        <mxCell id="fiL-rvAsWxO82VO47s_y-18" value="Text" style="text;html=1;align=center;verticalAlign=middle;resizable=0;points=[];autosize=1;strokeColor=none;fillColor=none;" vertex="1" parent="1">
          <mxGeometry x="570" y="208" width="40" height="30" as="geometry" />
        </mxCell>
        <mxCell id="fiL-rvAsWxO82VO47s_y-20" value="" style="endArrow=classic;html=1;rounded=0;exitX=0.5;exitY=1;exitDx=0;exitDy=0;entryX=0.5;entryY=0;entryDx=0;entryDy=0;" edge="1" parent="1" source="fiL-rvAsWxO82VO47s_y-5" target="fiL-rvAsWxO82VO47s_y-6">
          <mxGeometry width="50" height="50" relative="1" as="geometry">
            <mxPoint x="50" y="440" as="sourcePoint" />
            <mxPoint x="100" y="390" as="targetPoint" />
          </mxGeometry>
        </mxCell>
        <mxCell id="fiL-rvAsWxO82VO47s_y-21" value="" style="endArrow=classic;html=1;rounded=0;exitX=0.5;exitY=1;exitDx=0;exitDy=0;entryX=0.5;entryY=0;entryDx=0;entryDy=0;" edge="1" parent="1" source="fiL-rvAsWxO82VO47s_y-6" target="fiL-rvAsWxO82VO47s_y-8">
          <mxGeometry width="50" height="50" relative="1" as="geometry">
            <mxPoint x="140" y="510" as="sourcePoint" />
            <mxPoint x="190" y="460" as="targetPoint" />
          </mxGeometry>
        </mxCell>
        <mxCell id="fiL-rvAsWxO82VO47s_y-22" value="" style="endArrow=classic;html=1;rounded=0;exitX=0.5;exitY=1;exitDx=0;exitDy=0;entryX=0.5;entryY=0;entryDx=0;entryDy=0;" edge="1" parent="1" source="fiL-rvAsWxO82VO47s_y-8" target="fiL-rvAsWxO82VO47s_y-10">
          <mxGeometry width="50" height="50" relative="1" as="geometry">
            <mxPoint x="130" y="700" as="sourcePoint" />
            <mxPoint x="180" y="650" as="targetPoint" />
          </mxGeometry>
        </mxCell>
        <mxCell id="fiL-rvAsWxO82VO47s_y-23" value="" style="endArrow=classic;html=1;rounded=0;exitX=0.5;exitY=1;exitDx=0;exitDy=0;entryX=0.5;entryY=0;entryDx=0;entryDy=0;" edge="1" parent="1" source="fiL-rvAsWxO82VO47s_y-10" target="fiL-rvAsWxO82VO47s_y-11">
          <mxGeometry width="50" height="50" relative="1" as="geometry">
            <mxPoint x="390" y="590" as="sourcePoint" />
            <mxPoint x="440" y="540" as="targetPoint" />
          </mxGeometry>
        </mxCell>
        <mxCell id="fiL-rvAsWxO82VO47s_y-24" value="" style="endArrow=classic;html=1;rounded=0;exitX=1;exitY=0.5;exitDx=0;exitDy=0;entryX=0;entryY=0.5;entryDx=0;entryDy=0;" edge="1" parent="1" source="fiL-rvAsWxO82VO47s_y-8" target="fiL-rvAsWxO82VO47s_y-9">
          <mxGeometry width="50" height="50" relative="1" as="geometry">
            <mxPoint x="150" y="670" as="sourcePoint" />
            <mxPoint x="200" y="620" as="targetPoint" />
          </mxGeometry>
        </mxCell>
        <mxCell id="fiL-rvAsWxO82VO47s_y-25" value="" style="endArrow=classic;html=1;rounded=0;exitX=1;exitY=0.5;exitDx=0;exitDy=0;entryX=0;entryY=0.5;entryDx=0;entryDy=0;" edge="1" parent="1" source="fiL-rvAsWxO82VO47s_y-6" target="fiL-rvAsWxO82VO47s_y-7">
          <mxGeometry width="50" height="50" relative="1" as="geometry">
            <mxPoint x="150" y="630" as="sourcePoint" />
            <mxPoint x="200" y="580" as="targetPoint" />
          </mxGeometry>
        </mxCell>
        <mxCell id="fiL-rvAsWxO82VO47s_y-26" value="" style="endArrow=none;html=1;rounded=0;entryX=1;entryY=0.5;entryDx=0;entryDy=0;" edge="1" parent="1" target="fiL-rvAsWxO82VO47s_y-9">
          <mxGeometry width="50" height="50" relative="1" as="geometry">
            <mxPoint x="770" y="575" as="sourcePoint" />
            <mxPoint x="170" y="600" as="targetPoint" />
          </mxGeometry>
        </mxCell>
        <mxCell id="fiL-rvAsWxO82VO47s_y-27" value="" style="endArrow=none;html=1;rounded=0;" edge="1" parent="1">
          <mxGeometry width="50" height="50" relative="1" as="geometry">
            <mxPoint x="770" y="580" as="sourcePoint" />
            <mxPoint x="770" y="330" as="targetPoint" />
          </mxGeometry>
        </mxCell>
        <mxCell id="fiL-rvAsWxO82VO47s_y-28" value="" style="endArrow=classic;html=1;rounded=0;entryX=1;entryY=0.5;entryDx=0;entryDy=0;" edge="1" parent="1" target="fiL-rvAsWxO82VO47s_y-5">
          <mxGeometry width="50" height="50" relative="1" as="geometry">
            <mxPoint x="770" y="330" as="sourcePoint" />
            <mxPoint x="440" y="440" as="targetPoint" />
          </mxGeometry>
        </mxCell>
        <mxCell id="fiL-rvAsWxO82VO47s_y-29" value="&lt;font style=&quot;font-size: 19px;&quot;&gt;Y&lt;/font&gt;" style="text;html=1;strokeColor=none;fillColor=none;align=center;verticalAlign=middle;whiteSpace=wrap;rounded=0;" vertex="1" parent="1">
          <mxGeometry x="330" y="480" width="60" height="30" as="geometry" />
        </mxCell>
        <mxCell id="fiL-rvAsWxO82VO47s_y-30" value="&lt;font style=&quot;font-size: 19px;&quot;&gt;Y&lt;/font&gt;" style="text;html=1;strokeColor=none;fillColor=none;align=center;verticalAlign=middle;whiteSpace=wrap;rounded=0;" vertex="1" parent="1">
          <mxGeometry x="330" y="630" width="60" height="30" as="geometry" />
        </mxCell>
        <mxCell id="fiL-rvAsWxO82VO47s_y-31" value="&lt;font style=&quot;font-size: 19px;&quot;&gt;N&lt;/font&gt;" style="text;html=1;strokeColor=none;fillColor=none;align=center;verticalAlign=middle;whiteSpace=wrap;rounded=0;" vertex="1" parent="1">
          <mxGeometry x="480" y="545" width="60" height="30" as="geometry" />
        </mxCell>
        <mxCell id="fiL-rvAsWxO82VO47s_y-32" style="edgeStyle=orthogonalEdgeStyle;rounded=0;orthogonalLoop=1;jettySize=auto;html=1;exitX=0.75;exitY=0;exitDx=0;exitDy=0;entryX=0.647;entryY=0;entryDx=0;entryDy=0;entryPerimeter=0;" edge="1" parent="1" source="fiL-rvAsWxO82VO47s_y-31" target="fiL-rvAsWxO82VO47s_y-31">
          <mxGeometry relative="1" as="geometry" />
        </mxCell>
        <mxCell id="fiL-rvAsWxO82VO47s_y-33" value="&lt;font style=&quot;font-size: 19px;&quot;&gt;N&lt;/font&gt;" style="text;html=1;strokeColor=none;fillColor=none;align=center;verticalAlign=middle;whiteSpace=wrap;rounded=0;" vertex="1" parent="1">
          <mxGeometry x="480" y="390" width="60" height="30" as="geometry" />
        </mxCell>
        <mxCell id="fiL-rvAsWxO82VO47s_y-34" value="" style="endArrow=classic;html=1;rounded=0;exitX=0.563;exitY=-0.043;exitDx=0;exitDy=0;exitPerimeter=0;" edge="1" parent="1" source="fiL-rvAsWxO82VO47s_y-7">
          <mxGeometry width="50" height="50" relative="1" as="geometry">
            <mxPoint x="390" y="490" as="sourcePoint" />
            <mxPoint x="648" y="330" as="targetPoint" />
          </mxGeometry>
        </mxCell>
      </root>
    </mxGraphModel>
  </diagram>
</mxfile>
